<mxfile host="app.diagrams.net" agent="Mozilla/5.0 (Macintosh; Intel Mac OS X 10_15_7) AppleWebKit/537.36 (KHTML, like Gecko) Chrome/135.0.0.0 Safari/537.36 Edg/135.0.0.0" version="27.0.5">
  <diagram name="第 1 页" id="Ybq7wrGsOGmf0hlmfFG0">
    <mxGraphModel dx="1179" dy="769" grid="1" gridSize="10" guides="1" tooltips="1" connect="1" arrows="1" fold="1" page="1" pageScale="1" pageWidth="827" pageHeight="1169" math="0" shadow="0">
      <root>
        <mxCell id="0" />
        <mxCell id="1" parent="0" />
        <mxCell id="zS_CzUlN8bLmVB3pOhxq-5" style="edgeStyle=orthogonalEdgeStyle;rounded=0;orthogonalLoop=1;jettySize=auto;html=1;exitX=0.5;exitY=1;exitDx=0;exitDy=0;entryX=0.5;entryY=0;entryDx=0;entryDy=0;" edge="1" parent="1" source="zS_CzUlN8bLmVB3pOhxq-1" target="zS_CzUlN8bLmVB3pOhxq-2">
          <mxGeometry relative="1" as="geometry" />
        </mxCell>
        <mxCell id="zS_CzUlN8bLmVB3pOhxq-1" value="输入校验" style="rounded=0;whiteSpace=wrap;html=1;" vertex="1" parent="1">
          <mxGeometry x="230" y="120" width="120" height="50" as="geometry" />
        </mxCell>
        <mxCell id="zS_CzUlN8bLmVB3pOhxq-10" value="" style="edgeStyle=orthogonalEdgeStyle;rounded=0;orthogonalLoop=1;jettySize=auto;html=1;" edge="1" parent="1" source="zS_CzUlN8bLmVB3pOhxq-2" target="zS_CzUlN8bLmVB3pOhxq-9">
          <mxGeometry relative="1" as="geometry" />
        </mxCell>
        <mxCell id="zS_CzUlN8bLmVB3pOhxq-2" value="m = 0 或 n = 0" style="rhombus;whiteSpace=wrap;html=1;" vertex="1" parent="1">
          <mxGeometry x="230" y="200" width="120" height="70" as="geometry" />
        </mxCell>
        <mxCell id="zS_CzUlN8bLmVB3pOhxq-4" style="edgeStyle=orthogonalEdgeStyle;rounded=0;orthogonalLoop=1;jettySize=auto;html=1;exitX=0.5;exitY=1;exitDx=0;exitDy=0;" edge="1" parent="1" source="zS_CzUlN8bLmVB3pOhxq-3" target="zS_CzUlN8bLmVB3pOhxq-1">
          <mxGeometry relative="1" as="geometry" />
        </mxCell>
        <mxCell id="zS_CzUlN8bLmVB3pOhxq-3" value="输入" style="rounded=1;whiteSpace=wrap;html=1;" vertex="1" parent="1">
          <mxGeometry x="245" y="50" width="90" height="40" as="geometry" />
        </mxCell>
        <mxCell id="zS_CzUlN8bLmVB3pOhxq-6" value="" style="endArrow=classic;html=1;rounded=0;exitX=0;exitY=0.5;exitDx=0;exitDy=0;" edge="1" parent="1" source="zS_CzUlN8bLmVB3pOhxq-2">
          <mxGeometry width="50" height="50" relative="1" as="geometry">
            <mxPoint x="390" y="420" as="sourcePoint" />
            <mxPoint x="170" y="235" as="targetPoint" />
          </mxGeometry>
        </mxCell>
        <mxCell id="zS_CzUlN8bLmVB3pOhxq-7" value="是" style="text;html=1;align=center;verticalAlign=middle;resizable=0;points=[];autosize=1;strokeColor=none;fillColor=none;" vertex="1" parent="1">
          <mxGeometry x="180" y="210" width="40" height="30" as="geometry" />
        </mxCell>
        <mxCell id="zS_CzUlN8bLmVB3pOhxq-8" value="返回错误" style="rounded=0;whiteSpace=wrap;html=1;" vertex="1" parent="1">
          <mxGeometry x="50" y="210" width="120" height="50" as="geometry" />
        </mxCell>
        <mxCell id="zS_CzUlN8bLmVB3pOhxq-14" style="rounded=0;orthogonalLoop=1;jettySize=auto;html=1;exitX=1;exitY=0.5;exitDx=0;exitDy=0;entryX=0;entryY=0.5;entryDx=0;entryDy=0;" edge="1" parent="1" source="zS_CzUlN8bLmVB3pOhxq-9" target="zS_CzUlN8bLmVB3pOhxq-11">
          <mxGeometry relative="1" as="geometry" />
        </mxCell>
        <mxCell id="zS_CzUlN8bLmVB3pOhxq-19" style="edgeStyle=orthogonalEdgeStyle;rounded=0;orthogonalLoop=1;jettySize=auto;html=1;exitX=0.5;exitY=1;exitDx=0;exitDy=0;entryX=0.5;entryY=0;entryDx=0;entryDy=0;" edge="1" parent="1" source="zS_CzUlN8bLmVB3pOhxq-9" target="zS_CzUlN8bLmVB3pOhxq-13">
          <mxGeometry relative="1" as="geometry" />
        </mxCell>
        <mxCell id="zS_CzUlN8bLmVB3pOhxq-9" value="初始化欧几里得矩阵" style="whiteSpace=wrap;html=1;" vertex="1" parent="1">
          <mxGeometry x="230" y="310" width="120" height="50" as="geometry" />
        </mxCell>
        <mxCell id="zS_CzUlN8bLmVB3pOhxq-15" style="edgeStyle=orthogonalEdgeStyle;rounded=0;orthogonalLoop=1;jettySize=auto;html=1;exitX=0.5;exitY=1;exitDx=0;exitDy=0;entryX=0.5;entryY=0;entryDx=0;entryDy=0;" edge="1" parent="1" source="zS_CzUlN8bLmVB3pOhxq-11" target="zS_CzUlN8bLmVB3pOhxq-12">
          <mxGeometry relative="1" as="geometry" />
        </mxCell>
        <mxCell id="zS_CzUlN8bLmVB3pOhxq-11" value="i = 1 到 m&lt;div&gt;j = 1 到 n&lt;/div&gt;" style="rounded=0;whiteSpace=wrap;html=1;" vertex="1" parent="1">
          <mxGeometry x="414" y="250" width="120" height="50" as="geometry" />
        </mxCell>
        <mxCell id="zS_CzUlN8bLmVB3pOhxq-16" style="rounded=0;orthogonalLoop=1;jettySize=auto;html=1;exitX=0;exitY=0.5;exitDx=0;exitDy=0;entryX=1;entryY=0.5;entryDx=0;entryDy=0;" edge="1" parent="1" source="zS_CzUlN8bLmVB3pOhxq-12" target="zS_CzUlN8bLmVB3pOhxq-9">
          <mxGeometry relative="1" as="geometry">
            <mxPoint x="360" y="340" as="targetPoint" />
          </mxGeometry>
        </mxCell>
        <mxCell id="zS_CzUlN8bLmVB3pOhxq-12" value="计算 d(i, j)" style="rounded=0;whiteSpace=wrap;html=1;" vertex="1" parent="1">
          <mxGeometry x="414" y="360" width="120" height="50" as="geometry" />
        </mxCell>
        <mxCell id="zS_CzUlN8bLmVB3pOhxq-21" style="edgeStyle=orthogonalEdgeStyle;rounded=0;orthogonalLoop=1;jettySize=auto;html=1;exitX=0.5;exitY=1;exitDx=0;exitDy=0;entryX=0.5;entryY=0;entryDx=0;entryDy=0;" edge="1" parent="1" source="zS_CzUlN8bLmVB3pOhxq-13" target="zS_CzUlN8bLmVB3pOhxq-20">
          <mxGeometry relative="1" as="geometry" />
        </mxCell>
        <mxCell id="zS_CzUlN8bLmVB3pOhxq-13" value="初始化累计矩阵" style="rounded=0;whiteSpace=wrap;html=1;" vertex="1" parent="1">
          <mxGeometry x="230" y="400" width="120" height="50" as="geometry" />
        </mxCell>
        <mxCell id="zS_CzUlN8bLmVB3pOhxq-17" value="循环" style="text;html=1;align=center;verticalAlign=middle;resizable=0;points=[];autosize=1;strokeColor=none;fillColor=none;" vertex="1" parent="1">
          <mxGeometry x="364" y="320" width="50" height="30" as="geometry" />
        </mxCell>
        <mxCell id="zS_CzUlN8bLmVB3pOhxq-26" style="edgeStyle=orthogonalEdgeStyle;rounded=0;orthogonalLoop=1;jettySize=auto;html=1;exitX=0.5;exitY=1;exitDx=0;exitDy=0;entryX=0.5;entryY=0;entryDx=0;entryDy=0;" edge="1" parent="1" source="zS_CzUlN8bLmVB3pOhxq-18" target="zS_CzUlN8bLmVB3pOhxq-25">
          <mxGeometry relative="1" as="geometry" />
        </mxCell>
        <mxCell id="zS_CzUlN8bLmVB3pOhxq-18" value="计算弗雷歇距离" style="rounded=0;whiteSpace=wrap;html=1;" vertex="1" parent="1">
          <mxGeometry x="230" y="559.5" width="120" height="50" as="geometry" />
        </mxCell>
        <mxCell id="zS_CzUlN8bLmVB3pOhxq-23" style="edgeStyle=orthogonalEdgeStyle;rounded=0;orthogonalLoop=1;jettySize=auto;html=1;exitX=1;exitY=0.5;exitDx=0;exitDy=0;entryX=0;entryY=0.5;entryDx=0;entryDy=0;" edge="1" parent="1" source="zS_CzUlN8bLmVB3pOhxq-20" target="zS_CzUlN8bLmVB3pOhxq-22">
          <mxGeometry relative="1" as="geometry" />
        </mxCell>
        <mxCell id="zS_CzUlN8bLmVB3pOhxq-24" style="edgeStyle=orthogonalEdgeStyle;rounded=0;orthogonalLoop=1;jettySize=auto;html=1;exitX=0.5;exitY=1;exitDx=0;exitDy=0;entryX=0.5;entryY=0;entryDx=0;entryDy=0;" edge="1" parent="1" source="zS_CzUlN8bLmVB3pOhxq-20" target="zS_CzUlN8bLmVB3pOhxq-18">
          <mxGeometry relative="1" as="geometry" />
        </mxCell>
        <mxCell id="zS_CzUlN8bLmVB3pOhxq-20" value="动态规划填充&lt;div&gt;累计矩阵&lt;/div&gt;" style="rounded=0;whiteSpace=wrap;html=1;" vertex="1" parent="1">
          <mxGeometry x="230" y="480" width="120" height="50" as="geometry" />
        </mxCell>
        <mxCell id="zS_CzUlN8bLmVB3pOhxq-22" value="处理边界情况" style="rounded=0;whiteSpace=wrap;html=1;" vertex="1" parent="1">
          <mxGeometry x="420" y="480" width="120" height="50" as="geometry" />
        </mxCell>
        <mxCell id="zS_CzUlN8bLmVB3pOhxq-25" value="输出" style="rounded=1;whiteSpace=wrap;html=1;" vertex="1" parent="1">
          <mxGeometry x="245" y="640" width="90" height="40" as="geometry" />
        </mxCell>
      </root>
    </mxGraphModel>
  </diagram>
</mxfile>
